<?xml version="1.0" encoding="UTF-8" standalone="no"?>
<!-- Created with Inkscape (http://www.inkscape.org/) -->

<svg
   width="114.52758mm"
   height="137.08159mm"
   viewBox="0 0 114.52758 137.08159"
   version="1.1"
   id="svg1"
   sodipodi:docname="pdf.svg"
   inkscape:version="1.3.2 (091e20e, 2023-11-25, custom)"
   xmlns:inkscape="http://www.inkscape.org/namespaces/inkscape"
   xmlns:sodipodi="http://sodipodi.sourceforge.net/DTD/sodipodi-0.dtd"
   xmlns="http://www.w3.org/2000/svg"
   xmlns:svg="http://www.w3.org/2000/svg">
  <sodipodi:namedview
     id="namedview1"
     pagecolor="#ffffff"
     bordercolor="#000000"
     borderopacity="0.25"
     inkscape:showpageshadow="2"
     inkscape:pageopacity="0.0"
     inkscape:pagecheckerboard="0"
     inkscape:deskcolor="#d1d1d1"
     inkscape:document-units="mm"
     inkscape:zoom="0.57452381"
     inkscape:cx="271.52922"
     inkscape:cy="469.08413"
     inkscape:window-width="1920"
     inkscape:window-height="1013"
     inkscape:window-x="1911"
     inkscape:window-y="-9"
     inkscape:window-maximized="1"
     inkscape:current-layer="layer3" />
  <defs
     id="defs1" />
  <g
     inkscape:label="Layer 1"
     inkscape:groupmode="layer"
     id="layer1"
     transform="translate(-33.038202,-24.29999)" />
  <g
     inkscape:groupmode="layer"
     id="layer2"
     inkscape:label="Layer 2"
     transform="translate(-33.038202,-24.29999)"
     style="display:inline">
    <path
       id="rect1"
       style="display:inline;fill:none;fill-opacity:0;stroke:#8c1529;stroke-width:3.9;stroke-linecap:round;stroke-linejoin:bevel;stroke-dasharray:15.6, 7.8;stroke-dashoffset:15.99;stroke-opacity:1;paint-order:markers fill stroke"
       d="M 56.184199,134.47368 H 44 c -4.985995,0 -9,-4.01401 -9,-9 V 35.24999 c 0,-4.985995 4.014005,-9 9,-9 v 0 h 70.88158 c 4.98599,0 9,4.014005 9,9 l -1e-5,15.407888" />
  </g>
  <g
     inkscape:groupmode="layer"
     id="layer3"
     inkscape:label="Layer 3"
     transform="translate(-33.038202,-24.29999)">
    <rect
       style="fill:#ffffff;stroke:#8c1529;stroke-width:5;stroke-linecap:round;stroke-linejoin:bevel;stroke-dasharray:none;stroke-dashoffset:14.5;stroke-opacity:1;paint-order:markers fill stroke;fill-opacity:0"
       id="rect2"
       width="88.881577"
       height="108.22369"
       x="56.184208"
       y="50.657887"
       rx="6.7690001" />
    <g
       id="path6">
      <path
         style="color:#000000;fill:#8c1529;stroke-linecap:round;stroke-linejoin:round;stroke-dashoffset:60.4346;-inkscape-stroke:none;paint-order:fill markers stroke"
         d="M 100.625,139.38224 V 111.44737"
         id="path22" />
      <g
         id="g21">
        <path
           style="color:#000000;fill:#8c1529;stroke-linecap:round;-inkscape-stroke:none"
           d="M 100.625,107.61914 87.210937,121.0332 a 2,2 0 0 0 0,2.82813 2,2 0 0 0 2.828125,0 l 10.585938,-10.58594 10.58594,10.58594 a 2,2 0 0 0 2.82812,0 2,2 0 0 0 0,-2.82813 z"
           id="path21" />
      </g>
      <path
         style="color:#000000;fill:#8c1529;stroke-linecap:round;stroke-linejoin:round;stroke-dashoffset:60.4346;-inkscape-stroke:none;paint-order:fill markers stroke"
         d="m 100.625,109.44727 a 2,2 0 0 0 -2,2 v 27.93554 a 2,2 0 0 0 2,2 2,2 0 0 0 2,-2 v -27.93554 a 2,2 0 0 0 -2,-2 z"
         id="path23" />
    </g>
  </g>
  <g
     inkscape:groupmode="layer"
     id="layer4"
     inkscape:label="Layer 4"
     transform="translate(-33.038202,-24.29999)">
    <path
       id="path3"
       style="fill:#8c1529;fill-opacity:1;stroke:#8c1529;stroke-width:4.99999;stroke-linecap:round;stroke-linejoin:bevel;stroke-dashoffset:54.8032;stroke-opacity:0;paint-order:markers fill stroke"
       d="m 55.087077,67.69716 c -2.198683,0 -3.96875,1.770062 -3.96875,3.96875 v 20.615279 c 0,2.198678 1.770067,3.96875 3.96875,3.96875 h 50.549373 c 2.19867,0 3.96875,-1.770072 3.96875,-3.96875 V 71.66591 c 0,-2.198688 -1.77008,-3.96875 -3.96875,-3.96875 z m 6.127274,2.848405 h 8.778793 c 1.365253,0 2.047937,0.687606 2.047937,2.062406 v 10.138916 c 0,1.393895 -0.682684,2.090829 -2.047937,2.090829 h -5.427576 v 8.119917 h -3.351217 z m 15.320512,0 h 6.831108 c 1.327064,0 2.382309,0.381888 3.165181,1.145666 0.782873,0.754231 1.174089,1.790304 1.174089,3.107821 v 13.934033 c 0,1.317517 -0.391216,2.35359 -1.174089,3.107821 -0.782872,0.744683 -1.838117,1.116727 -3.165181,1.116727 h -6.831108 z m 15.879134,0 h 9.150863 v 2.96416 h -5.799646 v 6.630603 h 4.954736 v 2.907316 h -4.954736 v 9.909989 h -3.351217 z m -27.848429,2.878377 v 8.535396 h 4.095874 v -8.535396 z m 15.320512,0 v 16.655314 h 2.406055 c 1.365253,0 2.047937,-0.635012 2.047937,-1.904793 v -12.87415 c 0,-1.250686 -0.654185,-1.876371 -1.962155,-1.876371 z" />
  </g>
</svg>
